<?xml version="1.0" standalone="no"?>
<!DOCTYPE svg PUBLIC "-//W3C//DTD SVG 20010904//EN"
 "http://www.w3.org/TR/2001/REC-SVG-20010904/DTD/svg10.dtd">
<svg version="1.0" xmlns="http://www.w3.org/2000/svg"
 width="400.000000pt" height="400.000000pt" viewBox="0 0 400.000000 400.000000"
 preserveAspectRatio="xMidYMid meet">

<g transform="translate(0.000000,400.000000) scale(0.100000,-0.100000)"
fill="#000000" stroke="none">
<path d="M530 3241 c0 -18 123 -122 218 -185 140 -93 347 -185 511 -226 87
-22 31 -17 -199 20 -129 21 -237 36 -239 34 -8 -8 54 -78 107 -120 69 -54 301
-170 434 -215 53 -18 96 -34 94 -36 -1 -1 -102 17 -225 41 -122 23 -224 40
-226 36 -5 -8 131 -107 217 -157 89 -51 242 -114 362 -148 100 -28 120 -39 61
-30 -57 8 -345 35 -374 35 -87 0 175 -129 344 -169 66 -16 157 -36 203 -44
183 -34 236 -98 171 -204 -12 -19 -79 -72 -172 -134 -203 -138 -263 -200 -347
-359 -80 -153 -133 -211 -209 -234 -164 -48 -262 13 -231 144 27 111 71 151
303 276 210 113 283 193 275 303 -8 107 -74 196 -164 221 -182 51 -437 -87
-501 -272 -11 -31 -26 -54 -40 -61 -48 -22 -55 -144 -15 -273 l18 -59 8 45 c8
52 33 85 51 70 14 -12 35 15 53 69 18 51 15 74 -14 117 l-26 38 21 43 c100
206 426 298 506 143 23 -44 19 -98 -10 -140 -34 -49 -96 -93 -255 -185 -194
-111 -233 -143 -274 -226 -64 -127 -58 -232 18 -304 23 -22 60 -46 83 -53 97
-29 247 -2 324 59 20 15 53 53 74 84 38 54 55 67 55 42 0 -15 64 -145 83 -170
13 -16 43 -17 428 -15 l414 3 3 41 c4 54 -23 87 -94 113 -65 25 -237 46 -306
38 -26 -4 -48 -4 -48 -2 0 2 24 17 54 34 108 62 186 178 186 279 0 77 -37 135
-115 175 l-30 16 43 1 c24 0 56 -7 72 -16 30 -18 80 -89 80 -114 0 -8 4 -21 9
-29 8 -12 13 -12 35 3 25 16 26 20 27 129 1 108 2 110 14 70 7 -23 18 -108 24
-190 6 -81 13 -158 17 -170 7 -24 19 -30 29 -13 12 20 23 9 44 -48 11 -33 47
-101 80 -153 l59 -93 -42 -38 c-50 -45 -63 -43 192 -23 246 20 253 22 245 43
-10 29 -34 51 -64 57 -24 6 -111 -11 -160 -30 -30 -12 -48 63 -70 296 -22 240
-37 299 -100 405 -50 83 -168 204 -277 286 -176 132 -251 230 -260 344 -4 44
1 64 22 109 32 64 112 139 197 185 32 17 59 35 59 40 0 17 -53 71 -94 95 -57
33 -224 76 -489 125 -390 72 -1232 231 -1244 235 -7 2 -13 0 -13 -4z"/>
<path d="M2516 2887 c-6 -26 2 -64 21 -93 13 -21 12 -21 -45 -26 -56 -6 -113
-28 -157 -62 -19 -14 -17 -15 30 -16 49 0 49 0 25 -17 -57 -37 -150 -140 -150
-165 0 -5 14 -2 30 7 36 19 37 16 5 -31 -50 -73 -55 -146 -15 -211 11 -18 84
-84 162 -146 217 -173 288 -257 307 -360 l7 -42 36 70 c42 83 63 171 54 234
l-6 45 25 -24 c14 -13 28 -21 31 -17 4 3 6 28 6 56 0 69 -33 132 -98 188 -69
60 -88 110 -57 151 33 45 145 42 188 -4 23 -25 24 -25 34 -5 27 50 1 115 -60
146 -26 14 -29 21 -29 63 0 27 -7 57 -15 69 -9 13 -57 44 -108 70 -50 26 -119
69 -153 95 -59 44 -62 46 -68 25z m264 -269 c0 -12 -34 -10 -48 4 -7 7 -12 20
-12 30 0 17 2 17 30 -4 17 -12 30 -25 30 -30z"/>
<path d="M3364 2084 c-55 -34 -73 -39 -244 -65 -102 -16 -190 -29 -196 -29 -7
0 -14 -29 -18 -71 -7 -64 -21 -123 -41 -172 -4 -11 32 9 91 49 102 69 226 134
256 134 15 0 15 -3 2 -27 -18 -36 -18 -65 1 -110 l15 -36 50 80 c90 146 189
219 265 195 40 -12 40 -11 20 28 -35 68 -113 77 -201 24z"/>
</g>
</svg>
